<?xml version="1.0" encoding="UTF-8"?>
<svg width="24px" height="24px" viewBox="0 0 24 24" version="1.1" xmlns="http://www.w3.org/2000/svg" xmlns:xlink="http://www.w3.org/1999/xlink">
    <title>1ADE2E4D-3E74-402F-B950-3E0862A7A3BC</title>
    <g id="🖥-Presentation" stroke="none" stroke-width="1" fill="none" fill-rule="evenodd">
        <g id="Project---Presentation---Empty" transform="translate(-664.000000, -1818.000000)">
            <g id="Companion-Products" transform="translate(648.000000, 1802.000000)">
                <g id="Components/Product-Gallery/Small-Product-Gallery" transform="translate(0.000000, -0.000000)">
                    <g id="Inner-Content" transform="translate(16.000000, 16.000000)">
                        <g id="Price-Tag-Icon" transform="translate(0.000000, 0.000000)">
                            <path d="M13.4595006,0 L0.336660869,12.9858857 C-0.11222029,13.4242114 -0.11222029,14.1358657 0.336660869,14.5741914 L9.60353784,23.6712557 C10.0501548,24.1095814 10.7752705,24.1095814 11.2218874,23.6712557 L24,10.7914793 L24,0 L13.4595006,0 Z M19.4715646,6.22155865 C18.4724786,6.22155865 17.6607565,5.42490582 17.6607565,4.44436729 C17.6607565,3.46327321 18.4724786,2.66662037 19.4715646,2.66662037 C20.4734809,2.66662037 21.2829388,3.46327321 21.2829388,4.44436729 C21.2829388,5.42490582 20.4734809,6.22155865 19.4715646,6.22155865 Z" id="Fill-1" fill="#0DA584"></path>
                            <path d="M14.0516854,9.52481602 L14.2522174,9.32382609 C14.4155217,9.16052174 14.6784783,9.16052174 14.8412609,9.32382609 C15.0045652,9.4866087 15.0045652,9.75165217 14.8412609,9.91443478 L14.6408811,10.114924 C15.5685844,11.3332283 15.4764212,13.0864049 14.3643913,14.1984348 C14.2016087,14.3617391 13.9386522,14.3617391 13.7753478,14.1984348 C13.6125652,14.0356522 13.6125652,13.7706087 13.7753478,13.6073043 C14.5611139,12.8220005 14.6507598,11.5985505 14.0442856,10.7129101 L11.1228696,13.6319004 L11.3748261,15.6415652 C11.4499565,16.2285217 11.2767391,16.8316522 10.9036957,17.2923478 C10.541087,17.7405217 10.0297826,18.0118261 9.46317391,18.0587826 C9.3776087,18.0666087 9.28995652,18.0707826 9.2043913,18.0707826 C8.52035097,18.0707826 7.86077053,17.8474062 7.32062713,17.4355977 L6.987,17.7692174 C6.90508696,17.8506087 6.79917391,17.8913043 6.69117391,17.8913043 C6.58526087,17.8913043 6.47934783,17.8506087 6.39795652,17.7692174 C6.23465217,17.6064348 6.23465217,17.3413913 6.39795652,17.178087 L6.73027797,16.845528 C5.80096829,15.6274302 5.89262926,13.8746756 7.00526087,12.7615652 C7.16804348,12.5987826 7.431,12.5987826 7.59430435,12.7615652 C7.75708696,12.9248696 7.75708696,13.1878261 7.59430435,13.3506087 C6.80776914,14.1385319 6.71871754,15.3625875 7.32714953,16.2478133 L10.2448696,13.3299004 L9.99482609,11.3189565 C9.92178261,10.729913 10.092913,10.1267826 10.4659565,9.66817391 C10.8285652,9.21947826 11.3398696,8.9466087 11.9064783,8.89965217 C12.682123,8.83553103 13.4431501,9.06001488 14.0516854,9.52481602 Z M10.3758696,14.3789004 L7.91866516,16.8381508 C8.34754148,17.1319921 8.86693368,17.2719599 9.39378261,17.2271304 C9.73186957,17.2005217 10.0376087,17.0356522 10.2556957,16.7664348 C10.4863043,16.4810435 10.5922174,16.108 10.5473478,15.7453913 L10.3758696,14.3789004 Z M11.9758696,9.73130435 C11.6377826,9.75947826 11.3320435,9.92278261 11.1139565,10.1935652 C10.8833478,10.4768696 10.7774348,10.849913 10.8223043,11.2151304 L10.9928696,12.5829004 L13.454191,10.1218165 C13.0252149,9.82659488 12.5055908,9.68595856 11.9758696,9.73130435 Z" id="Shape" fill="#FFFFFF"></path>
                            <path d="M19.458087,1.1 C17.6137391,1.1 16.12,2.59373913 16.12,4.4386087 C16.12,6.28295652 17.6137391,7.77669565 19.458087,7.77669565 C21.3029565,7.77669565 22.7987826,6.28295652 22.7987826,4.4386087 C22.7987826,2.59373913 21.3029565,1.1 19.458087,1.1 Z M19.458087,6.10765217 C18.5372174,6.10765217 17.7890435,5.35947826 17.7890435,4.4386087 C17.7890435,3.51721739 18.5372174,2.76904348 19.458087,2.76904348 C20.3815652,2.76904348 21.1276522,3.51721739 21.1276522,4.4386087 C21.1276522,5.35947826 20.3815652,6.10765217 19.458087,6.10765217 Z" id="Fill-4" fill="#0A856A"></path>
                        </g>
                    </g>
                </g>
            </g>
        </g>
    </g>
</svg>
