<?xml version="1.0" encoding="UTF-8"?>
<svg width="19px" height="25px" viewBox="0 0 19 25" version="1.1" xmlns="http://www.w3.org/2000/svg" xmlns:xlink="http://www.w3.org/1999/xlink">
    <title>7202307A-0780-4BD0-8F08-6C0564C89480</title>
    <g id="🖥-Presentation" stroke="none" stroke-width="1" fill="none" fill-rule="evenodd">
        <g id="Project---Presentation---Empty" transform="translate(-67.000000, -1818.000000)">
            <g id="Similar-Products" transform="translate(48.000000, 1802.000000)">
                <g id="Inner-Content" transform="translate(16.000000, 16.000000)">
                    <g id="🖼-Icon" transform="translate(3.000000, 0.000000)">
                        <g id="Trending-Icon" transform="translate(0.000004, 0.034266)">
                            <path d="M3.61869954,21.8000156 C2.51868391,20.55 1.41866829,19.2500156 0.718683914,17.7 C0.0186995386,16.05 -0.181316086,14.1500156 0.168699539,12.3500156 C0.518668289,10.5500156 1.31868391,8.85 2.46866829,7.40001562 C2.36868391,8.64998437 2.81868391,9.95001562 3.66866829,10.8999844 C3.16869954,8.49998437 3.96866829,5.90001562 5.56869954,3.99998437 C7.16868391,2.1 9.36866829,0.849984375 11.6686839,-5.32907052e-15 C10.5186995,1.2 10.3686995,3.09998437 10.8186995,4.70001562 C11.2686995,6.3 12.2186683,7.70001562 13.0686995,9.15 C13.9186839,10.5999844 14.7186995,12.0999844 14.7686683,13.7499844 C15.2186683,12.9 15.7186839,12.0500156 16.0186839,11.1 C16.3186839,10.1499844 16.4686839,9.15 16.2186995,8.19998437 C17.1186995,9.3 17.6186683,10.4000156 17.8686995,11.7999844 C18.1186839,13.2 18.0686683,14.6499844 17.9186683,16.05 C17.7186995,17.6000156 17.3186683,19.2 16.4686839,20.4999844 C15.4686995,22.05 13.8686683,23.1500156 12.1186839,23.7500156 C9.01869954,24.3 5.96868391,23.85 3.61869954,21.8000156" id="Fill-1" fill="#D04425"></path>
                            <path d="M7.41866829,23.6499844 C11.5186839,25.2500156 15.5686839,20.4 13.3186839,16.65 C13.3186839,16.5999844 13.2686683,16.5999844 13.2686683,16.5500156 C13.4686839,18.6 12.9686683,20.1 12.0186995,20.9499844 C12.5186683,19.7499844 12.1686995,18.3500156 11.5686995,17.1500156 C10.9686995,15.9999844 10.1186683,14.9499844 9.46869954,13.8500156 C8.81868391,12.6999844 8.31866829,11.4 8.61866829,10.1000156 C7.41866829,11.0000156 6.56868391,12.3500156 6.21866829,13.8 C5.86869954,15.2499844 6.06866829,16.8500156 6.71868391,18.2000156 C5.96868391,17.6499844 5.41869954,16.7499844 5.36868391,15.8000156 C4.56866829,16.7499844 4.06869954,18 4.11866829,19.2500156 C4.11866829,21.2000156 5.66868391,22.95 7.41866829,23.6499844" id="Fill-3" fill="#F6C648"></path>
                        </g>
                    </g>
                </g>
            </g>
        </g>
    </g>
</svg>