<svg xmlns="http://www.w3.org/2000/svg" viewBox="0 0 20 24">
  <g fill="none" fill-rule="evenodd">
    <path fill="#D04425" d="M4.196 16.142L1.32 21.29l3.382-.28L6.252 24 9 19.06v-2.918zM11 16.142v2.919L13.749 24l1.549-2.99 3.38.28-2.874-5.148z"/>
    <path fill="#F6C648" d="M10 0L7.925 2.065 5.02.952l-.794 3.016-2.888.773.774 2.887L0 9.74l2.113 2.114-.774 2.886 2.888.773L5 18.4l2.886-.774L10 19.74l2.113-2.114L15 18.4l.773-2.887 2.888-.773-.774-2.886L20 9.74l-2.113-2.113.774-2.887-2.888-.773-.794-3.016-2.904 1.113z"/>
    <path fill="#FCEEC9" d="M13.728 9.74a3.728 3.728 0 11-7.456 0 3.728 3.728 0 017.456 0"/>
  </g>
</svg>