<svg xmlns="http://www.w3.org/2000/svg" viewBox="0 0 24 24">
  <g fill="none" fill-rule="evenodd">
    <path fill="#0071DB" d="M24 12c0 6.627-5.373 12-12 12S0 18.627 0 12 5.373 0 12 0s12 5.373 12 12"/>
    <path fill="#3496F2" d="M12 0c.208 0 .415.005.62.016C6.283.339 1.242 5.58 1.242 12c0 6.42 5.04 11.661 11.38 11.984-.206.01-.413.016-.621.016-6.627 0-12-5.373-12-12S5.373 0 12 0"/>
    <path fill="#FFFFFE" d="M14.878 21.073c.06.22-.07.448-.29.508a9.83 9.83 0 01-2.588.35.414.414 0 010-.828c.797 0 1.594-.108 2.37-.32.218-.06.448.069.508.29zm5.93-5.436a.414.414 0 01.2.55 10.02 10.02 0 01-4.418 4.605.414.414 0 01-.385-.733 9.185 9.185 0 004.053-4.221.413.413 0 01.55-.201zm.71-4.05c.228 0 .413.185.413.413 0 .77-.088 1.537-.262 2.277a.415.415 0 01-.806-.19c.16-.677.24-1.38.24-2.087 0-.229.186-.414.414-.414zM19.153 9.121a.414.414 0 01.278.515l-1.241 4.138a.423.423 0 01-.096.166l-.063.054-.063.036-.056.022a.424.424 0 01-.119.017l-.049-.003-.07-.014-.045-.017-.058-.03-.048-.036-.03-.029a.42.42 0 01-.072-.103l-.024-.063-.846-2.816-.844 2.816a.416.416 0 01-.032.077l-.029.046-.052.06-.057.044-.073.038-.053.016-.041.01a.41.41 0 01-.06.004l-.049-.003-.084-.019-.071-.032-.052-.035-.065-.064a.408.408 0 01-.075-.142l-1.241-4.138a.414.414 0 01.792-.238l.845 2.816.845-2.816a.411.411 0 01.437-.293l.056.01.06.02c.112.045.203.139.24.263l.845 2.816.845-2.816a.412.412 0 01.515-.277zM12 9.103a.414.414 0 110 .828h-1.242v1.24l1.242.001A.414.414 0 1112 12h-1.242v1.24l1.242.001a.414.414 0 110 .828h-1.655a.414.414 0 01-.414-.414V9.517c0-.228.185-.414.414-.414H12zm-3.724 0c.229 0 .414.186.414.414v4.138c0 .03-.004.06-.01.088l-.02.066-.022.047-.038.057-.06.061-.051.036-.05.026-.069.022-.021.005-.073.006-.084-.008-.08-.025a.412.412 0 01-.101-.063l-.046-.044-.044-.06-1.715-2.86v2.646a.414.414 0 11-.827 0V9.517l.003-.047.013-.066.02-.054.039-.07.043-.052.037-.033.063-.042.035-.017.07-.022.046-.008.045-.003.047.003.066.013.071.028.06.036.053.046.041.05 1.73 2.88.001-2.642c0-.228.185-.414.414-.414zM2.942 9.04c.22.061.35.29.288.51A9.152 9.152 0 002.897 12c0 .2-.142.367-.33.405l-.084.009A.414.414 0 012.069 12c0-.907.123-1.807.364-2.672.06-.22.29-.349.51-.288zm5.316-5.788c.099.205.012.453-.193.552a9.182 9.182 0 00-4.16 4.029.414.414 0 01-.737-.38 10.016 10.016 0 014.537-4.395.414.414 0 01.553.194zM12 2.069a.414.414 0 010 .828c-.746 0-1.494.095-2.226.282a.414.414 0 11-.204-.802A9.861 9.861 0 0112 2.069z"/>
    <path fill="#055CAD" d="M12 0c-.208 0-.415.005-.62.016C17.717.339 22.758 5.58 22.758 12c0 6.42-5.04 11.661-11.38 11.984.206.01.413.016.621.016 6.627 0 12-5.373 12-12S18.627 0 12 0"/>
  </g>
</svg>