<svg xmlns="http://www.w3.org/2000/svg" viewBox="0 0 24 25">
  <g fill="none" fill-rule="evenodd">
    <path fill="#D69651" d="M17.085 17.9l-.814.813-.567.194-3.829 1.31-3.849 1.317L.814 24H0v-.813L6.102 8.544l.813-.814z"/>
    <path fill="#C78640" d="M8.026 21.534l-3.809 1.303-3.521-1.32.99-2.375zM15.704 18.907l-3.829 1.31-9.2-3.45 1.062-2.55zM15.132 15.947l-10.478-3.93.99-2.373 5.095 1.91z"/>
    <path fill="#F6C648" d="M8.95 7.322l1.7-1.701a1.137 1.137 0 00-.356-1.848l-1.06-.454A4.476 4.476 0 017.419 1.89l-.503-.67 1.22-.814a4.274 4.274 0 002.206 1.684l.484.161a2.61 2.61 0 011.157 4.176l-1.813 2.114-1.22-1.22z"/>
    <path fill="#0DA584" d="M14.644 5.288l-.407-2.44 2.441.813z"/>
    <path fill="#D04425" d="M12.111 1.21l.198-.788 1.627.407-.198.789z"/>
    <path fill="#F6C648" d="M16.045.877l1.22-.814.452.677-1.22.814z"/>
    <path fill="#0071DB" d="M6.521 3.756l.79-.198.407 1.627-.789.197zM16.678 15.05l1.701-1.7a1.137 1.137 0 011.848.356l.454 1.06c.309.72.802 1.346 1.428 1.816l.67.503.814-1.22a4.274 4.274 0 01-1.684-2.206l-.161-.484a2.61 2.61 0 00-4.176-1.157l-2.114 1.813 1.22 1.22z"/>
    <path fill="#F6C648" d="M19.932 9.763l2.441.407-.814-2.441z"/>
    <path fill="#D04425" d="M22.387 11.476l.789-.198.408 1.627-.789.198z"/>
    <path fill="#0DA584" d="M22.448 7.507l.814-1.22.677.45-.814 1.22z"/>
    <path fill="#0071DB" d="M18.62 17.084l.198-.79 1.627.408-.198.789z"/>
    <path fill="#D04425" d="M11.797 10.576l1.62-1.891a3.189 3.189 0 012.07-1.095l.045-.005a3.322 3.322 0 002.881-2.58 2.282 2.282 0 011.627-1.706l3.146-.858.407 1.627-2.2.489a2.29 2.29 0 00-1.75 1.793l-.011.059a3.486 3.486 0 01-3.074 2.796l-.048.005a3.567 3.567 0 00-2.395 1.268l-1.098 1.319-1.22-1.22z"/>
  </g>
</svg>