<svg xmlns="http://www.w3.org/2000/svg" viewBox="0 0 24 24">
  <g fill="none" fill-rule="evenodd">
    <path fill="#0DA584" d="M13.46 0L.337 12.986a1.105 1.105 0 000 1.588l9.267 9.097a1.16 1.16 0 001.618 0L24 10.791V0H13.46zm6.012 6.222c-1 0-1.811-.797-1.811-1.778 0-.98.811-1.777 1.81-1.777 1.002 0 1.812.796 1.812 1.777 0 .98-.81 1.778-1.811 1.778z"/>
    <path fill="#FFF" d="M14.052 9.525l.2-.201a.417.417 0 01.589.59l-.2.2a3.117 3.117 0 01-.277 4.084.415.415 0 01-.589 0 .419.419 0 010-.59 2.28 2.28 0 00.27-2.895l-2.922 2.919.252 2.01a2.197 2.197 0 01-.471 1.65c-.363.449-.874.72-1.44.767a3.102 3.102 0 01-2.143-.623l-.334.333a.417.417 0 11-.589-.59l.332-.333a3.115 3.115 0 01.275-4.084.416.416 0 11.59.589 2.28 2.28 0 00-.268 2.897l2.918-2.918-.25-2.011a2.2 2.2 0 01.471-1.65 2.057 2.057 0 011.44-.77 3.105 3.105 0 012.146.626zm-3.676 4.854l-2.457 2.46c.429.293.948.433 1.475.388.338-.026.644-.191.862-.46.23-.286.336-.659.291-1.022l-.171-1.366zm1.6-4.648a1.23 1.23 0 00-.862.463c-.23.283-.337.656-.292 1.021l.17 1.368 2.462-2.461a2.262 2.262 0 00-1.478-.39z"/>
    <path fill="#0A856A" d="M19.458 1.1a3.337 3.337 0 00-3.338 3.339A3.339 3.339 0 1019.458 1.1zm0 5.008a1.67 1.67 0 11.002-3.34 1.67 1.67 0 01-.002 3.34z"/>
  </g>
</svg>