<svg xmlns="http://www.w3.org/2000/svg" viewBox="0 0 19 25">
  <g fill="none" fill-rule="evenodd">
    <path fill="#D04425" d="M3.619 21.834c-1.1-1.25-2.2-2.55-2.9-4.1-.7-1.65-.9-3.55-.55-5.35.35-1.8 1.15-3.5 2.3-4.95-.1 1.25.35 2.55 1.2 3.5-.5-2.4.3-5 1.9-6.9 1.6-1.9 3.8-3.15 6.1-4-1.15 1.2-1.3 3.1-.85 4.7.45 1.6 1.4 3 2.25 4.45.85 1.45 1.65 2.95 1.7 4.6.45-.85.95-1.7 1.25-2.65.3-.95.45-1.95.2-2.9.9 1.1 1.4 2.2 1.65 3.6s.2 2.85.05 4.25c-.2 1.55-.6 3.15-1.45 4.45-1 1.55-2.6 2.65-4.35 3.25-3.1.55-6.15.1-8.5-1.95"/>
    <path fill="#F6C648" d="M7.419 23.684c4.1 1.6 8.15-3.25 5.9-7 0-.05-.05-.05-.05-.1.2 2.05-.3 3.55-1.25 4.4.5-1.2.15-2.6-.45-3.8-.6-1.15-1.45-2.2-2.1-3.3-.65-1.15-1.15-2.45-.85-3.75-1.2.9-2.05 2.25-2.4 3.7-.35 1.45-.15 3.05.5 4.4-.75-.55-1.3-1.45-1.35-2.4-.8.95-1.3 2.2-1.25 3.45 0 1.95 1.55 3.7 3.3 4.4"/>
  </g>
</svg>